<svg width="1024" height="1024" viewBox="0 0 1024 1024" fill="none" xmlns="http://www.w3.org/2000/svg">
  <rect width="1024" height="1024" rx="220" fill="#0F766E"/>
  <circle cx="512" cy="416" r="252" fill="#14B8A6"/>
  <path d="M512 167C406.5 167 321 252.5 321 358C321 512.2 512 755 512 755C512 755 703 512.2 703 358C703 252.5 617.5 167 512 167Z" fill="#F8FAFC"/>
  <circle cx="512" cy="360" r="72" fill="#0F766E"/>
  <path d="M657 605L727 675C744 692 744 720 727 737L722 742C705 759 677 759 660 742L590 672C569 682 544 678 527 661L413 547L461 499L575 613C592 630 596 654 586 676L656 746C662 752 672 752 678 746L683 741C689 735 689 725 683 719L613 649L657 605Z" fill="#0B5F59"/>
  <path d="M382 449C350 417 343 369 363 330L430 397L489 338L422 271C461 251 509 258 541 290C581 330 583 394 547 437L392 592C383 601 369 601 360 592L337 569C328 560 328 546 337 537L492 382C509 365 509 337 492 320C479 307 460 303 444 307L527 390L430 487L347 404C343 420 369 436 382 449Z" fill="#0F766E"/>
</svg>
